<?xml version="1.0" standalone="no"?>
<!DOCTYPE svg PUBLIC "-//W3C//DTD SVG 1.1//EN"
  "http://www.w3.org/Graphics/SVG/1.1/DTD/svg11.dtd">

<svg xmlns="http://www.w3.org/2000/svg" version="1.1"
  xmlns:xlink="http://www.w3.org/1999/xlink"
  style="isolation:isolate" viewBox="0 0 5178.1 1000" width="5178.1" height="1000">
  <!-- <svg viewBox="0 0 1000 1000" width="522.6" height="493.1" x="4655.5" y="0">
    <use xlink:href="#n-star-1" fill="#00B3FF"/>
  </svg> -->
  <g>
    <path d=" M 58.686 987.131 L 60.309 987.131 C 92.631 987.131 119.018 960.768 119.018 928.446 L 119.018 657.856 C 119.018 629.104 118.021 593.396 115.053 555.718 L 361.204 964.408 C 383.417 1001.322 474.077 997.055 474.077 940.155 L 474.077 375.371 C 474.077 343.049 447.714 316.685 415.391 316.685 L 412.748 316.685 C 380.426 316.685 354.062 343.072 354.062 375.371 L 354.062 652.894 C 354.062 680.671 355.083 715.382 357.053 752.087 L 109.882 339.524 C 87.507 302.124 0 307.642 0 363.662 L 0 928.446 C 0 960.768 26.387 987.131 58.686 987.131 Z " fill="rgb(255,255,255)"/>
    <path d=" M 549.944 781.835 C 549.944 924.643 639.214 1000.023 770.126 1000.023 C 815.943 1000.023 852.462 995.363 889.329 985.346 C 913.815 978.668 928.585 953.742 922.672 929.072 L 921.211 923.043 C 915.229 898.001 890.025 882.443 864.96 888.24 C 834.098 895.381 802.773 899.856 770.126 899.856 C 703.673 899.856 664.997 862.178 664.997 781.859 L 664.997 763.008 L 910.615 763.008 C 936.491 763.008 957.591 741.908 957.591 716.031 L 957.591 653.914 C 957.591 538.861 866.351 459.516 753.293 459.516 C 641.208 459.516 549.968 533.899 549.968 672.765 L 549.968 781.859 L 549.944 781.835 Z  M 664.997 677.704 L 664.997 660.847 C 664.997 597.385 701.679 559.683 753.269 559.683 C 806.831 559.683 841.541 600.329 841.541 653.914 L 841.541 677.704 L 664.997 677.704 L 664.997 677.704 Z " fill="rgb(255,255,255)"/>
    <path d=" M 1052.449 987.131 L 1330.018 987.131 C 1392.413 987.131 1393.132 889.932 1330.342 889.932 L 1149.277 889.932 L 1362.665 567.474 C 1381.794 538.606 1371.383 472.385 1323.479 472.385 L 1059.405 472.385 C 996.986 472.385 996.986 569.584 1059.405 569.584 L 1231.613 569.584 L 1013.587 890.883 C 994.111 919.565 1004.035 987.131 1052.449 987.131 L 1052.449 987.131 Z " fill="rgb(255,255,255)"/>
    <path d=" M 2398.581 773.906 C 2398.581 919.704 2488.824 1000.023 2611.807 1000.023 C 2735.763 1000.023 2826.029 919.704 2826.029 773.906 L 2826.029 685.633 C 2826.029 538.838 2735.763 459.493 2611.807 459.493 C 2488.824 459.493 2398.581 538.838 2398.581 684.636 L 2398.581 773.906 Z  M 2513.611 768.92 L 2513.611 690.572 C 2513.611 602.3 2547.347 559.66 2611.807 559.66 C 2677.263 559.66 2710.977 602.3 2710.977 690.572 L 2710.977 768.92 C 2710.977 857.216 2677.263 899.856 2611.807 899.856 C 2547.347 899.856 2513.611 857.216 2513.611 768.92 Z " fill="rgb(255,255,255)"/>
    <path d=" M 2888.263 773.906 C 2888.263 919.704 2978.506 1000.023 3101.489 1000.023 C 3225.468 1000.023 3315.735 919.704 3315.735 773.906 L 3315.735 685.633 C 3315.735 538.838 3225.468 459.493 3101.489 459.493 C 2978.506 459.493 2888.263 538.838 2888.263 684.636 L 2888.263 773.906 Z  M 3003.293 768.92 L 3003.293 690.572 C 3003.293 602.3 3037.029 559.66 3101.489 559.66 C 3166.945 559.66 3200.659 602.3 3200.659 690.572 L 3200.659 768.92 C 3200.659 857.216 3166.945 899.856 3101.489 899.856 C 3037.029 899.856 3003.293 857.216 3003.293 768.92 Z " fill="rgb(255,255,255)"/>
    <path d=" M 4001.345 940.155 L 4001.345 786.797 L 4048.971 768.92 L 4143.178 960.838 C 4168.939 1013.309 4283.018 985.276 4248.215 918.452 L 4150.111 730.245 C 4190.758 710.42 4205.667 674.712 4219.556 621.151 L 4243.461 531.464 C 4261.292 464.571 4150.992 449.708 4136.106 507.721 L 4113.407 596.364 C 4105.477 627.11 4094.579 645.961 4070.766 654.888 L 4001.322 678.701 L 4001.322 347.199 C 4001.322 283.25 3885.295 283.296 3885.295 347.199 L 3885.295 940.155 C 3885.295 1004.058 4001.322 1004.104 4001.322 940.155 L 4001.345 940.155 Z " fill="rgb(255,255,255)"/>
    <path d=" M 3800.176 784.803 C 3800.176 789.232 3800.083 793.661 3799.852 798.02 C 3799.388 848.451 3801.312 881.608 3814.946 931.97 C 3821.624 956.594 3807.364 982.123 3782.879 989.311 L 3778.659 990.563 C 3753.872 997.867 3727.717 983.607 3720.367 958.843 L 3720.321 958.704 C 3684.358 985.717 3639.19 1000.023 3590.892 1000.023 C 3477.833 1000.023 3380.658 921.675 3380.658 784.803 L 3380.658 675.71 C 3380.658 528.914 3476.86 459.469 3580.991 459.469 C 3620.664 459.469 3660.337 474.355 3684.126 489.218 L 3684.126 348.335 C 3684.126 280.189 3800.176 285.267 3800.176 346.063 L 3800.176 784.78 L 3800.176 784.803 Z  M 3684.126 779.841 L 3684.126 586.44 C 3653.381 570.581 3623.632 559.66 3591.889 559.66 C 3540.322 559.66 3497.705 591.402 3497.705 680.671 L 3497.705 779.841 C 3497.705 861.157 3538.351 899.833 3590.915 899.833 C 3643.48 899.833 3684.15 861.157 3684.15 779.841 L 3684.126 779.841 Z " fill="rgb(255,255,255)"/>
    <path d=" M 4284.942 828.441 C 4284.942 925.64 4370.224 1000.023 4481.311 1000.023 C 4525.784 1000.023 4567.45 987.131 4600.886 964.942 C 4610.392 985.879 4634.205 997.241 4656.905 990.586 L 4661.125 989.334 C 4685.633 982.123 4699.87 956.618 4693.192 931.993 C 4687.21 909.803 4682.457 887.451 4679.883 865.285 C 4678.075 849.773 4677.704 835.629 4677.704 820.395 L 4677.704 650.923 C 4677.704 533.876 4598.382 459.493 4479.364 459.493 C 4439.436 459.493 4399.508 466.681 4360.671 476.976 C 4335.722 483.607 4320.72 509.321 4327.282 534.316 L 4328.418 538.583 C 4334.91 563.277 4360.021 578.279 4384.831 572.296 C 4416.412 564.714 4448.34 559.683 4479.364 559.683 C 4531.905 559.683 4560.657 592.423 4560.657 650.923 L 4560.657 669.774 L 4479.364 669.774 C 4364.311 669.774 4284.966 723.312 4284.966 828.441 L 4284.942 828.441 Z  M 4402.94 826.447 C 4402.94 788.768 4422.811 755.055 4478.32 755.055 L 4560.633 755.055 L 4560.633 828.441 C 4560.633 864.149 4530.885 899.856 4481.288 899.856 C 4428.747 899.856 4402.94 863.175 4402.94 826.447 L 4402.94 826.447 Z " fill="rgb(255,255,255)"/>
    <path d=" M 1908.389 784.803 C 1908.389 789.232 1908.482 793.661 1908.69 798.02 C 1909.154 848.451 1907.253 881.608 1893.596 931.97 C 1886.918 956.594 1901.178 982.123 1925.663 989.311 L 1929.906 990.563 C 1954.693 997.867 1980.825 983.607 1988.198 958.843 L 1988.244 958.704 C 2024.207 985.717 2069.375 1000.023 2117.65 1000.023 C 2230.709 1000.023 2327.908 921.675 2327.908 784.803 L 2327.908 675.71 C 2327.908 528.914 2231.706 459.469 2127.551 459.469 C 2087.901 459.469 2048.229 474.355 2024.416 489.218 L 2024.416 343.466 C 2024.416 275.32 1908.389 280.398 1908.389 341.194 L 1908.389 784.78 L 1908.389 784.803 Z  M 2024.416 779.841 L 2024.416 586.44 C 2055.185 570.581 2084.933 559.66 2116.653 559.66 C 2168.22 559.66 2210.861 591.402 2210.861 680.671 L 2210.861 779.841 C 2210.861 861.157 2170.214 899.833 2117.65 899.833 C 2065.062 899.833 2024.416 861.157 2024.416 779.841 L 2024.416 779.841 Z " fill="rgb(255,255,255)"/>
    <path d=" M 1421.513 828.441 C 1421.513 925.64 1506.794 1000.023 1617.882 1000.023 C 1662.331 1000.023 1703.997 987.131 1737.433 964.942 C 1746.939 985.879 1770.775 997.241 1793.452 990.586 L 1797.672 989.334 C 1822.157 982.123 1836.417 956.618 1829.739 931.993 C 1823.757 909.803 1819.004 887.451 1816.43 865.285 C 1814.622 849.773 1814.251 835.629 1814.251 820.395 L 1814.251 650.923 C 1814.251 533.876 1734.929 459.493 1615.911 459.493 C 1575.983 459.493 1536.055 466.681 1497.218 476.976 C 1472.269 483.607 1457.267 509.321 1463.829 534.316 L 1464.965 538.583 C 1471.457 563.277 1496.568 578.279 1521.378 572.296 C 1552.982 564.714 1584.887 559.683 1615.911 559.683 C 1668.452 559.683 1697.227 592.423 1697.227 650.923 L 1697.227 669.774 L 1615.911 669.774 C 1500.858 669.774 1421.513 723.312 1421.513 828.441 L 1421.513 828.441 Z  M 1539.533 826.447 C 1539.533 788.768 1559.381 755.055 1614.914 755.055 L 1697.227 755.055 L 1697.227 828.441 C 1697.227 864.149 1667.478 899.856 1617.905 899.856 C 1565.34 899.856 1539.557 863.175 1539.557 826.447 L 1539.533 826.447 Z " fill="rgb(255,255,255)"/>
  </g>
  <defs>
    <rect id="n-petal" x="375" y="0" width="250" height="625" rx="125" ry="125"/>
    <use id="n-petal-1" xlink:href="#n-petal" transform="rotate(0 500 500)"/>
    <use id="n-petal-2" xlink:href="#n-petal" transform="rotate(72 500 500)"/>
    <use id="n-petal-3" xlink:href="#n-petal" transform="rotate(144 500 500)"/>
    <use id="n-petal-4" xlink:href="#n-petal" transform="rotate(216 500 500)"/>
    <use id="n-petal-5" xlink:href="#n-petal" transform="rotate(288 500 500)"/>

    <g id="n-star-1">
      <use xlink:href="#n-petal-1"/>
      <use xlink:href="#n-petal-2"/>
      <use xlink:href="#n-petal-3"/>
      <use xlink:href="#n-petal-4"/>
      <use xlink:href="#n-petal-5"/>
    </g>
  </defs>
</svg>
